<svg xmlns="http://www.w3.org/2000/svg" width="1200" height="160" viewBox="0 0 1200 160" preserveAspectRatio="none">
  <rect width="1200" height="160" fill="transparent"/>
  <g stroke="#f2ede3" stroke-width="6" stroke-linecap="round" opacity=".95">
    <line x1="10" y1="82" x2="10" y2="78"/><line x1="30" y1="90" x2="30" y2="70"/><line x1="50" y1="84" x2="50" y2="76"/>
    <line x1="70" y1="98" x2="70" y2="62"/><line x1="90" y1="88" x2="90" y2="72"/><line x1="110" y1="106" x2="110" y2="54"/>
    <line x1="130" y1="86" x2="130" y2="74"/><line x1="150" y1="120" x2="150" y2="40"/><line x1="170" y1="92" x2="170" y2="68"/>
    <line x1="190" y1="110" x2="190" y2="50"/><line x1="210" y1="84" x2="210" y2="76"/><line x1="230" y1="96" x2="230" y2="64"/>
    <line x1="250" y1="90" x2="250" y2="70"/><line x1="270" y1="118" x2="270" y2="42"/><line x1="290" y1="86" x2="290" y2="74"/>
    <line x1="310" y1="102" x2="310" y2="58"/><line x1="330" y1="82" x2="330" y2="78"/><line x1="350" y1="112" x2="350" y2="48"/>
    <line x1="370" y1="92" x2="370" y2="68"/><line x1="390" y1="124" x2="390" y2="36"/><line x1="410" y1="84" x2="410" y2="76"/>
    <line x1="430" y1="98" x2="430" y2="62"/><line x1="450" y1="88" x2="450" y2="72"/><line x1="470" y1="108" x2="470" y2="52"/>
    <line x1="490" y1="82" x2="490" y2="78"/><line x1="510" y1="96" x2="510" y2="64"/><line x1="530" y1="88" x2="530" y2="72"/>
    <line x1="550" y1="118" x2="550" y2="42"/><line x1="570" y1="86" x2="570" y2="74"/><line x1="590" y1="104" x2="590" y2="56"/>
    <line x1="610" y1="82" x2="610" y2="78"/><line x1="630" y1="110" x2="630" y2="50"/><line x1="650" y1="90" x2="650" y2="70"/>
    <line x1="670" y1="126" x2="670" y2="34"/><line x1="690" y1="84" x2="690" y2="76"/><line x1="710" y1="96" x2="710" y2="64"/>
    <line x1="730" y1="88" x2="730" y2="72"/><line x1="750" y1="116" x2="750" y2="44"/><line x1="770" y1="86" x2="770" y2="74"/>
    <line x1="790" y1="102" x2="790" y2="58"/><line x1="810" y1="82" x2="810" y2="78"/><line x1="830" y1="112" x2="830" y2="48"/>
    <line x1="850" y1="92" x2="850" y2="68"/><line x1="870" y1="120" x2="870" y2="40"/><line x1="890" y1="84" x2="890" y2="76"/>
    <line x1="910" y1="98" x2="910" y2="62"/><line x1="930" y1="88" x2="930" y2="72"/><line x1="950" y1="108" x2="950" y2="52"/>
    <line x1="970" y1="82" x2="970" y2="78"/><line x1="990" y1="96" x2="990" y2="64"/><line x1="1010" y1="88" x2="1010" y2="72"/>
    <line x1="1030" y1="118" x2="1030" y2="42"/><line x1="1050" y1="86" x2="1050" y2="74"/><line x1="1070" y1="104" x2="1070" y2="56"/>
    <line x1="1090" y1="82" x2="1090" y2="78"/><line x1="1110" y1="110" x2="1110" y2="50"/><line x1="1130" y1="90" x2="1130" y2="70"/>
    <line x1="1150" y1="122" x2="1150" y2="38"/><line x1="1170" y1="84" x2="1170" y2="76"/><line x1="1190" y1="96" x2="1190" y2="64"/>
  </g>
</svg>
